<svg xmlns="http://www.w3.org/2000/svg" width="512" height="512" viewBox="0 0 512 512" version="1.1">
	<path d="M 244.259 145.647 C 240.549 146.457, 239 149.801, 239 157 C 239 161.205, 238.463 164.322, 237.502 165.694 C 235.342 168.778, 228.271 171.181, 222.442 170.813 C 217.648 170.509, 217.386 170.328, 213.675 164.750 C 211.528 161.522, 208.873 158.755, 207.621 158.441 C 204.249 157.595, 194.318 161.749, 190.438 165.628 C 186.125 169.941, 186.025 173.071, 190 179.339 C 191.650 181.941, 193 184.976, 193 186.084 C 193 190.650, 186.244 198.843, 180.782 200.902 C 178.506 201.760, 177.146 201.444, 172.430 198.963 C 169.332 197.333, 165.736 196, 164.439 196 C 159.730 196, 151.987 207.666, 152.015 214.717 C 152.034 219.344, 152.603 220.261, 156.783 222.403 C 158.588 223.328, 159.833 224.462, 159.548 224.922 C 158.959 225.876, 163.765 231, 165.250 231 C 166.813 231, 165.062 240.113, 162.786 243.823 C 160.367 247.765, 157.566 249, 151.046 249 C 144.832 249, 142.054 251.177, 141.325 256.617 L 140.775 260.713 131.138 261.351 C 125.837 261.702, 107.322 261.992, 89.993 261.995 L 58.486 262 44.993 258.601 C 23.961 253.304, 23.570 253.276, 20.009 256.837 C 18.354 258.492, 17 260.574, 17 261.463 C 17 268.314, 28.876 279.527, 41.359 284.463 C 44.408 285.669, 45.067 286.357, 44.496 287.745 C 42.842 291.763, 42.980 292.822, 45.557 295.885 C 47.044 297.652, 50.434 300.200, 53.092 301.546 C 58.018 304.043, 75.677 308.974, 79.750 308.991 C 81.541 308.998, 82 309.566, 82 311.777 C 82 319.548, 93.526 324.961, 113.555 326.597 C 121.018 327.207, 121.728 327.461, 123.218 330.056 C 125.029 333.212, 129.927 334.986, 136.856 334.994 C 140.290 334.999, 141.622 335.521, 143.149 337.463 C 144.215 338.817, 146.550 340.200, 148.337 340.535 C 150.269 340.898, 151.976 341.997, 152.544 343.243 C 153.937 346.301, 160.062 347.990, 172.305 348.692 C 182.786 349.293, 183.152 349.393, 184.518 352.035 C 185.292 353.532, 186.730 355.068, 187.713 355.448 C 192.176 357.172, 198.847 357.818, 202.559 356.886 C 204.726 356.342, 214.825 355.529, 225 355.080 C 240.167 354.411, 244.581 353.869, 249.500 352.069 C 256.804 349.397, 256.162 349.395, 263.500 352.119 C 268.456 353.959, 272.633 354.481, 287.500 355.118 C 297.400 355.542, 307.975 356.365, 311 356.946 C 319.557 358.591, 327.147 356.550, 329.517 351.968 C 330.919 349.255, 331.092 349.212, 342.219 348.821 C 354.065 348.405, 360.367 346.549, 361.458 343.154 C 361.750 342.244, 364.129 340.825, 366.745 340 C 370.249 338.895, 371.580 337.936, 371.805 336.358 C 372.062 334.558, 373.018 334.103, 377.804 333.505 C 384.753 332.637, 388.725 330.698, 390.204 327.452 C 391.211 325.241, 391.921 324.999, 397.411 324.993 C 404.130 324.985, 418.275 321.922, 423.288 319.389 C 428.646 316.682, 431 313.950, 431 310.439 C 431 307.373, 431.216 307.195, 435.750 306.522 C 442.512 305.518, 458.774 300.232, 463.537 297.490 C 468.572 294.591, 470.459 291.262, 469.617 286.770 C 469.028 283.630, 469.242 283.255, 472.518 281.693 C 480.784 277.751, 490.082 270.715, 492.518 266.560 C 495.195 261.991, 495.665 257.442, 493.718 254.924 C 490.980 251.380, 486.709 251.754, 464 257.526 C 450.926 260.849, 440.422 261.378, 404.722 260.514 L 373.945 259.769 371.972 255.439 C 370.888 253.058, 370 250.471, 370 249.690 C 370 248.909, 369.067 247.084, 367.927 245.635 C 366.077 243.283, 365.174 243, 359.504 243 C 354.131 243, 352.680 242.602, 350.077 240.411 C 347.260 238.041, 345.672 235.061, 347.989 236.493 C 348.532 236.829, 348.739 236.483, 348.448 235.724 C 347.561 233.414, 349.904 228.718, 354.071 224.449 C 358.266 220.152, 359.779 216.349, 359.193 211.576 C 358.924 209.386, 358.607 209.009, 357.932 210.076 C 357.292 211.088, 357.005 210.487, 356.942 208 C 356.894 206.075, 355.991 203.150, 354.938 201.500 C 353.884 199.850, 352.528 197.562, 351.925 196.415 C 350.529 193.758, 345.881 190.995, 342.846 191.017 C 341.556 191.026, 338.250 192.369, 335.500 194 C 332.750 195.631, 329.531 196.974, 328.347 196.983 C 327.158 196.992, 324.213 195.097, 321.770 192.750 C 319.337 190.412, 317.576 188.621, 317.858 188.768 C 318.139 188.915, 319.185 186.440, 320.182 183.268 C 321.942 177.669, 321.788 171.395, 319.919 172.550 C 319.413 172.863, 319 171.309, 319 169.098 C 319 164.404, 317.001 162.101, 309.681 158.359 C 306.149 156.554, 303.619 155.977, 300.211 156.198 C 295.710 156.490, 295.461 156.677, 292.496 162 C 288.641 168.919, 285.970 170.322, 279.126 169.024 C 272.253 167.720, 269.159 165.618, 269.729 162.636 C 269.973 161.360, 269.513 159.656, 268.707 158.850 C 267.900 158.043, 266.929 155.537, 266.547 153.281 C 265.503 147.099, 263.335 145.713, 254.238 145.413 C 249.982 145.273, 245.491 145.378, 244.259 145.647 M 249.750 147.729 C 248.238 147.951, 247 148.580, 247 149.125 C 247 149.671, 246.530 149.828, 245.956 149.473 C 243.408 147.898, 241.999 151.222, 242.185 158.372 C 242.352 164.825, 242.401 164.979, 242.694 160 C 242.873 156.975, 243.248 153.488, 243.528 152.250 C 244.436 148.245, 246.002 149.866, 245.944 154.750 C 245.880 160.096, 243.960 166.674, 242.612 166.165 C 242.123 165.980, 241.448 166.250, 241.112 166.765 C 240.775 167.280, 238.490 168.960, 236.034 170.499 C 232.657 172.615, 229.919 173.416, 224.811 173.781 C 216.663 174.364, 214.454 173.219, 210.944 166.594 C 209.600 164.056, 207.663 161.713, 206.640 161.388 C 204.156 160.597, 194.236 165.770, 191.708 169.175 L 189.722 171.850 192.611 176.675 C 194.200 179.329, 195.778 182.850, 196.118 184.500 L 196.737 187.500 196.864 184.500 C 196.941 182.689, 195.837 179.760, 194.080 177.112 C 192.479 174.698, 191.418 172.074, 191.723 171.280 C 192.570 169.072, 197.963 178.903, 197.983 182.693 C 198.003 186.511, 194.994 192.090, 190.087 197.332 C 183.205 204.684, 178.611 205.604, 170.059 201.342 C 163.923 198.285, 162.877 198.590, 158.933 204.593 C 155.906 209.201, 153.953 215.307, 154.977 216.963 C 155.376 217.609, 157.965 219.185, 160.729 220.466 C 163.493 221.747, 166.066 223.298, 166.447 223.914 C 166.827 224.529, 167.550 224.778, 168.053 224.467 C 168.586 224.138, 168.836 227.155, 168.652 231.701 C 168.290 240.618, 165.268 248.101, 161.297 249.910 C 159.982 250.510, 156.537 251, 153.642 251 C 146.815 251, 144 253.359, 144 259.079 C 144 263.779, 147.090 270.364, 150.263 272.423 C 151.493 273.221, 155.648 274.418, 159.495 275.083 C 168.550 276.646, 171.721 279.654, 174.931 289.725 C 177.445 297.610, 178.042 298.376, 182.500 299.440 C 186.257 300.336, 189 302.748, 189 305.155 C 189 306.333, 189.723 307, 191 307 C 193.569 307, 193.520 306.548, 190.517 302.612 C 186.860 297.817, 181.243 285.115, 179.332 277.319 C 178.222 272.795, 177.674 266.462, 177.702 258.500 C 177.738 248.461, 178.184 245.029, 180.430 237.500 C 186.032 218.726, 197.053 203.911, 213.340 193.260 C 226.505 184.651, 239.328 181, 256.405 181 C 292.003 181, 323.175 205.345, 331.640 239.758 C 332.552 243.466, 333.412 246.643, 333.550 246.817 C 333.739 247.056, 343.670 242.416, 344.677 241.619 C 344.775 241.542, 344.002 239.008, 342.960 235.989 C 340.859 229.904, 340.452 222.892, 342.028 219.947 C 342.594 218.890, 345.519 216.450, 348.528 214.525 C 354.905 210.446, 355.263 208.880, 351.371 202.088 C 348.509 197.093, 345.354 194.055, 343 194.027 C 342.175 194.017, 339.475 195.355, 337 197 C 330.279 201.468, 325.389 200.914, 318.552 194.912 C 314.427 191.290, 311 185.286, 311 181.681 C 311 180.361, 312.361 176.732, 314.024 173.615 L 317.048 167.949 314.274 165.374 C 311.115 162.441, 306.982 160.142, 302.620 158.891 C 299.498 157.996, 296 159.905, 296 162.505 C 296 163.162, 294.603 165.628, 292.896 167.984 L 289.793 172.269 281.583 171.757 C 268.397 170.934, 264 167.547, 264 158.212 C 264 150.019, 263.233 149.204, 254 147.588 C 253.175 147.444, 251.262 147.507, 249.750 147.729 M 296.945 163.133 C 296.231 164.856, 294.562 167.556, 293.235 169.133 C 291.908 170.710, 291.262 172, 291.800 172 C 293.365 172, 296.444 168.836, 299.342 164.250 C 301.801 160.360, 301.868 160, 300.136 160 C 298.957 160, 297.753 161.183, 296.945 163.133 M 247.273 183.040 C 223.834 185.476, 203.472 198.114, 190.653 218.184 C 178.580 237.086, 175.737 262.147, 183.130 284.495 C 186.116 293.521, 193.904 306.028, 196.449 305.884 C 197.818 305.807, 197.985 305.629, 196.951 305.349 C 194.962 304.812, 189.874 297.012, 190.672 295.722 C 191.013 295.170, 191.674 295.452, 192.188 296.372 C 192.689 297.267, 193.699 298, 194.431 298 C 195.163 298, 196.964 299.575, 198.432 301.500 C 200.440 304.133, 201.847 305, 204.110 305 C 205.764 305, 206.859 304.581, 206.543 304.069 C 206.226 303.557, 206.494 302.813, 207.138 302.415 C 207.869 301.963, 208.041 302.124, 207.595 302.845 C 207.127 303.603, 207.761 304, 209.441 304 C 210.848 304, 212 303.523, 212 302.941 C 212 302.359, 211.581 302.141, 211.069 302.457 C 209.738 303.280, 208.980 301.650, 209.958 300.067 C 210.595 299.038, 211.058 299.239, 211.968 300.940 C 213.003 302.874, 213.673 303.066, 217.325 302.475 C 236.527 299.371, 261.443 289.944, 282.133 277.956 C 294.853 270.586, 294.777 270.895, 283.750 271.404 C 275.762 271.772, 274 271.596, 274 270.427 C 274 268.596, 271.975 268.613, 268.388 270.474 C 266.545 271.430, 265.205 271.605, 264.574 270.974 C 264.038 270.438, 262.816 270, 261.857 270 C 260.898 270, 259.476 269.090, 258.697 267.978 C 257.890 266.826, 256.643 266.200, 255.800 266.523 C 254.986 266.835, 253.782 266.442, 253.123 265.649 C 251.306 263.459, 248.201 264.808, 247.478 268.102 C 246.849 270.962, 246.750 271, 239.855 271 C 231.076 271, 228.742 272.095, 229.643 275.790 C 230.253 278.289, 229.982 278.160, 226.152 274.126 C 223.869 271.721, 222 269.551, 222 269.305 C 222 268.422, 224.879 266, 225.929 266 C 227.315 266, 227.328 266.067, 225.060 261.618 C 223.663 258.877, 223.365 257.169, 223.996 255.510 C 224.478 254.242, 224.599 252.933, 224.266 252.599 C 223.932 252.265, 224.719 250.864, 226.014 249.485 C 227.522 247.880, 228.612 247.372, 229.046 248.074 C 229.453 248.733, 229.936 248.353, 230.258 247.121 C 230.555 245.986, 230.171 244.557, 229.397 243.914 C 226.961 241.893, 227.709 236.523, 230.901 233.106 L 233.802 230 253.010 230 L 272.217 230 271.589 232.500 C 271.228 233.942, 271.393 235, 271.981 235 C 272.541 235, 273 234.523, 273 233.941 C 273 233.359, 273.470 233.172, 274.044 233.527 C 275.496 234.425, 278.204 231.973, 277.573 230.331 C 277.289 229.589, 277.943 228.428, 279.028 227.750 C 280.113 227.073, 281 225.952, 281 225.259 C 281 224.567, 281.398 224, 281.883 224 C 283.179 224, 283.968 220.156, 282.755 219.752 C 282.076 219.525, 282.169 218.175, 283.028 215.799 C 284.328 212.203, 286.881 211.502, 286.629 214.810 C 286.552 215.821, 287.348 216.620, 288.613 216.801 C 290.047 217.006, 291.589 218.865, 293.409 222.582 C 294.884 225.596, 296.480 227.821, 296.955 227.528 C 297.883 226.954, 303.385 232.948, 302.627 233.707 C 302.376 233.957, 301.252 233.670, 300.128 233.069 C 298.255 232.066, 297.957 232.407, 296.546 237.158 C 295.699 240.008, 295.159 242.492, 295.345 242.678 C 295.531 242.864, 298.484 240.875, 301.907 238.258 C 305.936 235.179, 307.579 233.386, 306.566 233.177 C 305.705 232.999, 305 232.211, 305 231.427 C 305 230.303, 306.805 230, 313.500 230 C 318.500 230, 322 230.412, 322 231 C 322 231.550, 321.127 232, 320.059 232 C 318.010 232, 303 243.510, 303 245.081 C 303 245.587, 302.494 245.888, 301.875 245.750 C 301.256 245.613, 300.523 246.125, 300.245 246.889 C 299.967 247.656, 300.190 248, 300.745 247.657 C 301.317 247.304, 302.252 249.076, 302.915 251.768 C 306.794 267.532, 311.146 276, 315.369 276 C 316.206 276, 317.484 274.762, 318.209 273.250 C 319.713 270.111, 322.738 269.632, 324.391 272.269 C 325.244 273.630, 325.108 274.724, 323.802 277.010 L 322.104 279.981 326.802 277.625 C 332.387 274.825, 364.360 262, 365.757 262 C 367.218 262, 368.061 253.701, 366.983 249.940 C 365.725 245.556, 364.660 245.033, 356.941 245.015 C 352.920 245.006, 349.641 244.458, 348.468 243.600 C 346.768 242.357, 345.794 242.582, 339.779 245.612 C 336.053 247.488, 327.344 252.434, 320.427 256.603 C 313.509 260.772, 307.619 263.952, 307.337 263.670 C 307.055 263.388, 312.440 259.859, 319.305 255.829 C 333.477 247.507, 332.801 248.903, 328.853 236.107 C 318.018 200.984, 284.487 179.172, 247.273 183.040 M 336.500 198.553 C 333.084 200.502, 331.318 201.981, 332.400 201.988 C 334.983 202.004, 345.019 196.839, 344.388 195.818 C 343.640 194.609, 343.062 194.810, 336.500 198.553 M 221.500 199 C 221.160 199.550, 221.610 200, 222.500 200 C 223.390 200, 223.840 199.550, 223.500 199 C 223.160 198.450, 222.710 198, 222.500 198 C 222.290 198, 221.840 198.450, 221.500 199 M 286.564 205.293 C 286.940 206.279, 287.499 206.834, 287.807 206.526 C 288.115 206.219, 287.808 205.412, 287.124 204.733 C 286.136 203.753, 286.022 203.868, 286.564 205.293 M 245 210.941 C 245 211.459, 245.445 212.157, 245.989 212.493 C 246.555 212.843, 246.723 212.442, 246.382 211.552 C 245.717 209.820, 245 209.503, 245 210.941 M 156.165 214.922 C 156.349 216.254, 157.026 217.517, 157.670 217.728 C 159.175 218.223, 158.769 215.358, 157.105 213.740 C 156.081 212.743, 155.896 212.975, 156.165 214.922 M 159.638 217.500 C 159.955 218.325, 160.616 219, 161.107 219 C 162.744 219, 163.486 219.375, 165.427 221.183 C 167.703 223.303, 168.870 222.753, 166.965 220.458 C 165.750 218.994, 160.791 216, 159.581 216 C 159.296 216, 159.322 216.675, 159.638 217.500 M 222 222 C 222 222.550, 222.477 223, 223.059 223 C 223.641 223, 223.840 222.550, 223.500 222 C 223.160 221.450, 222.684 221, 222.441 221 C 222.198 221, 222 221.450, 222 222 M 291.815 225.145 C 292.506 226.049, 292.942 227.373, 292.785 228.085 C 292.628 228.798, 293.288 229.553, 294.250 229.764 C 296.802 230.322, 296.392 228.698, 293.280 225.924 C 291.784 224.591, 291.125 224.240, 291.815 225.145 M 202.307 229.077 C 188.606 235.859, 180.132 256.302, 186.177 267.992 C 188.770 273.006, 193.478 276.624, 198.679 277.600 C 205.677 278.912, 218.338 269.650, 216.411 264.628 C 215.471 262.180, 213.973 262.639, 210.493 266.438 C 198.405 279.635, 188.641 261.539, 197.926 243.147 C 201.129 236.801, 204.624 233.654, 209.500 232.726 C 214.184 231.834, 216 233.827, 216 239.860 C 216 244.693, 216.151 245, 218.531 245 C 221.351 245, 221.655 244.444, 222.359 238 C 222.629 235.525, 223.137 232.764, 223.488 231.865 C 223.982 230.599, 223.059 229.867, 219.385 228.615 C 212.978 226.432, 207.342 226.585, 202.307 229.077 M 237.223 234.557 C 234.600 236.393, 234.443 237.586, 236.548 239.690 C 238.460 241.603, 238.651 241.414, 239.522 236.750 C 240.318 232.489, 240.257 232.431, 237.223 234.557 M 248.484 235.750 C 248.180 237.262, 247.496 239.882, 246.965 241.571 C 245.617 245.860, 245.728 246.304, 247.999 245.711 C 249.098 245.423, 250.250 245.596, 250.558 246.094 C 251.494 247.608, 253.254 247.105, 252.638 245.500 C 251.995 243.824, 252.817 241, 253.948 241 C 254.352 241, 254.376 243.025, 254 245.500 C 253.352 249.770, 254.407 251.709, 255.636 248.506 C 255.952 247.684, 256.725 247.311, 257.355 247.678 C 257.985 248.044, 257.668 247.395, 256.652 246.235 C 255.611 245.047, 255.132 243.596, 255.555 242.912 C 256.104 242.022, 256.663 242.187, 257.642 243.526 C 258.378 244.531, 259.273 245.060, 259.632 244.701 C 259.991 244.342, 259.658 243.289, 258.893 242.362 C 257.811 241.052, 257.779 240.581, 258.750 240.254 C 259.438 240.023, 260 239.304, 260 238.657 C 260 238.010, 260.917 236.908, 262.039 236.208 C 265.397 234.111, 263.291 233, 255.960 233 C 249.210 233, 249.024 233.068, 248.484 235.750 M 250.029 236.961 C 249.220 237.473, 248.771 238.104, 249.031 238.364 C 249.290 238.624, 250.376 238.198, 251.443 237.418 C 253.576 235.858, 252.383 235.472, 250.029 236.961 M 201.630 243.650 C 199.502 245.628, 198.152 247.079, 198.630 246.873 C 200.818 245.935, 206.977 241.422, 206.988 240.750 C 207.012 239.262, 205.431 240.119, 201.630 243.650 M 285.079 243.583 C 285.127 244.748, 285.364 244.985, 285.683 244.188 C 285.972 243.466, 285.936 242.603, 285.604 242.271 C 285.272 241.939, 285.036 242.529, 285.079 243.583 M 235.200 244.200 C 233.567 245.833, 233.692 247, 235.500 247 C 236.333 247, 237 246.111, 237 245 C 237 242.669, 236.814 242.586, 235.200 244.200 M 219 250 C 219 250.550, 219.450 251, 220 251 C 220.550 251, 221 250.550, 221 250 C 221 249.450, 220.550 249, 220 249 C 219.450 249, 219 249.450, 219 250 M 205.079 254.583 C 205.127 255.748, 205.364 255.985, 205.683 255.188 C 205.972 254.466, 205.936 253.603, 205.604 253.271 C 205.272 252.939, 205.036 253.529, 205.079 254.583 M 292.701 253.683 C 292.427 254.133, 291.682 256.441, 291.046 258.813 C 290.410 261.184, 289.641 263.772, 289.338 264.563 C 288.930 265.624, 289.605 266, 291.912 266 C 294.783 266, 294.985 266.213, 294.382 268.613 L 293.727 271.225 296.363 269.498 C 297.813 268.547, 299 267.607, 299 267.408 C 299 266.781, 293.961 253.627, 293.571 253.238 C 293.367 253.034, 292.976 253.234, 292.701 253.683 M 471 258.564 C 456.844 262.138, 442.693 264.480, 440.451 263.620 C 439.724 263.341, 423.279 263.033, 403.906 262.936 L 368.682 262.759 367.222 265.629 C 366.419 267.208, 364.689 269.651, 363.378 271.058 C 361.019 273.589, 361.014 273.638, 362.919 275.683 C 364.085 276.934, 366.750 278.014, 369.672 278.419 C 372.328 278.787, 379 279.951, 384.500 281.007 C 397.531 283.508, 422.742 286.313, 425.411 285.559 C 426.560 285.234, 434.700 284.537, 443.500 284.008 C 461.845 282.907, 466.783 281.694, 476.508 275.901 C 484.945 270.875, 487.484 268.685, 490.682 263.670 C 492.974 260.078, 493.027 259.691, 491.540 257.420 C 489.473 254.266, 487.614 254.370, 471 258.564 M 22.223 258.557 C 21 259.413, 20.002 260.875, 20.004 261.807 C 20.016 267.156, 31.783 277.323, 43.747 282.321 C 49.911 284.896, 52.037 285.211, 68.123 285.934 C 77.816 286.369, 86.221 287.018, 86.800 287.377 C 88.303 288.305, 113.325 285.334, 127.500 282.544 C 134.100 281.245, 141.126 279.907, 143.113 279.572 C 145.100 279.236, 147.493 278.113, 148.430 277.077 C 150.051 275.286, 149.960 274.965, 146.567 270.520 C 144.605 267.950, 143 265.426, 143 264.911 C 143 264.340, 125.936 264.078, 99.250 264.238 L 55.500 264.500 41 260.753 C 33.025 258.692, 26.038 257.005, 25.473 257.003 C 24.907 257.001, 23.445 257.701, 22.223 258.557 M 280.015 260.250 C 280.028 262.069, 280.216 262.213, 281 261 C 282.253 259.061, 282.253 258, 281 258 C 280.450 258, 280.007 259.012, 280.015 260.250 M 181.296 268.421 L 181.093 272.500 182.531 268.500 C 183.322 266.300, 183.977 264.462, 183.985 264.417 C 183.993 264.371, 183.438 264.335, 182.750 264.338 C 181.988 264.340, 181.420 265.936, 181.296 268.421 M 275 265.969 C 275 266.501, 275.675 266.678, 276.500 266.362 C 277.325 266.045, 278 265.609, 278 265.393 C 278 265.177, 277.325 265, 276.500 265 C 275.675 265, 275 265.436, 275 265.969 M 219.500 267 C 219.840 267.550, 220.316 268, 220.559 268 C 220.802 268, 221 267.550, 221 267 C 221 266.450, 220.523 266, 219.941 266 C 219.359 266, 219.160 266.450, 219.500 267 M 287 276.724 C 259.612 293.417, 230.263 303.530, 198.750 307.131 L 188 308.360 188 311.112 C 188 313.015, 188.906 314.509, 190.938 315.956 L 193.877 318.049 207.033 316.032 C 239.082 311.120, 264.750 303.594, 301.613 288.300 C 317.326 281.781, 317.844 281.477, 314.132 280.950 C 309.084 280.233, 305.610 277.879, 302.365 272.976 C 300.918 270.789, 299.682 269.024, 299.617 269.053 C 299.553 269.081, 293.875 272.534, 287 276.724 M 183.526 277.250 C 184.240 280.637, 186 283.406, 186 281.141 C 186 280.449, 186.458 280.165, 187.017 280.510 C 187.576 280.856, 187.268 279.533, 186.332 277.570 C 184.206 273.112, 182.616 272.930, 183.526 277.250 M 352.661 275.481 C 344.843 277.190, 342.398 278.642, 340.461 282.723 C 338.936 285.936, 338.946 286.283, 340.607 288.119 C 344.952 292.919, 361.113 298.763, 379.500 302.182 C 389.470 304.036, 395.138 304.421, 413 304.457 C 432.304 304.496, 435.317 304.271, 442.500 302.259 C 454.583 298.874, 461.205 296.127, 464.250 293.236 C 467.433 290.215, 467.726 287.967, 465.232 285.710 C 463.711 284.334, 462.071 284.236, 453.482 285.007 C 447.992 285.501, 442.375 285.858, 441 285.802 C 439.625 285.745, 434.322 286.058, 429.215 286.496 C 418.193 287.441, 401.145 285.934, 383.090 282.417 C 376.265 281.088, 369.358 280, 367.741 280 C 365.765 280, 363.884 279.017, 362 277 C 360.459 275.350, 359.041 274.046, 358.849 274.102 C 358.657 274.159, 355.872 274.779, 352.661 275.481 M 149.729 277.508 C 147.711 280.270, 145.691 280.880, 127 284.371 C 103.178 288.822, 96.682 289.257, 71.500 288.090 C 50.377 287.111, 48.398 287.162, 47.250 288.703 C 45.408 291.177, 45.653 291.936, 49.438 295.507 C 53.414 299.256, 67.843 304.266, 80 306.116 C 97.172 308.731, 134.070 304.646, 153.368 297.994 C 163.489 294.505, 172 289.070, 172 286.096 C 172 282.371, 166.818 278.308, 160.455 277.045 C 157.180 276.394, 153.825 275.687, 153 275.473 C 152.175 275.259, 150.703 276.175, 149.729 277.508 M 206.918 279.344 C 208.349 281.126, 212 283.468, 212 282.603 C 212 282.346, 210.537 281.111, 208.750 279.857 C 206.444 278.240, 205.912 278.091, 206.918 279.344 M 190.774 284.089 C 190.216 287.885, 192.452 290.699, 194.606 288.912 C 195.373 288.276, 196 287.530, 196 287.255 C 196 286.980, 195.365 287.282, 194.589 287.926 C 192.731 289.468, 191.466 287.531, 191.862 283.751 C 192.258 279.976, 191.335 280.263, 190.774 284.089 M 186.445 287.522 C 186.819 292.235, 187.581 292.807, 187.704 288.467 C 187.758 286.558, 187.434 284.768, 186.983 284.490 C 186.533 284.211, 186.291 285.576, 186.445 287.522 M 213.079 289.583 C 213.127 290.748, 213.364 290.985, 213.683 290.188 C 213.972 289.466, 213.936 288.603, 213.604 288.271 C 213.272 287.939, 213.036 288.529, 213.079 289.583 M 336.780 293.404 L 335.060 298.500 338.900 302.020 C 344.691 307.330, 351.689 310.715, 361.578 312.992 C 366.485 314.121, 374.775 316.700, 380 318.723 C 387.733 321.716, 390.802 322.397, 396.500 322.385 C 404.503 322.369, 415.393 319.848, 422.061 316.469 C 428.114 313.402, 429.462 311.731, 428.034 309.064 C 427.013 307.156, 426.029 307, 415.016 307 C 386.882 307, 353.041 299.596, 342 291.024 L 338.500 288.307 336.780 293.404 M 171.042 290.450 C 164.117 298.793, 131.480 307.062, 100.035 308.440 C 92.630 308.764, 86.129 309.471, 85.590 310.010 C 83.896 311.704, 86.280 316.022, 90 318 C 96.686 321.555, 105.192 323.457, 114.500 323.479 C 122.188 323.497, 124.309 323.115, 129.046 320.859 C 134.119 318.444, 141.122 316.307, 154.500 313.091 C 159.528 311.882, 169.194 306.215, 174.184 301.551 C 176.636 299.258, 176.758 298.803, 175.594 296.271 C 174.893 294.747, 173.894 292.439, 173.372 291.142 C 172.503 288.980, 172.309 288.922, 171.042 290.450 M 192.206 292.954 C 194.007 295.098, 195.579 296.754, 195.700 296.633 C 196.631 295.702, 194.344 292.160, 191.912 290.764 L 188.933 289.054 192.206 292.954 M 202.955 291.611 C 202.350 293.200, 201.595 295.792, 201.278 297.372 L 200.701 300.244 199.386 297.872 C 198.663 296.567, 198.057 295.950, 198.039 296.500 C 198.003 297.631, 201.727 304, 202.424 304 C 202.673 304, 204.367 302.570, 206.188 300.822 L 209.500 297.645 205.750 300.373 C 201.494 303.470, 201.543 303.575, 203.441 295.508 C 204.969 289.008, 204.718 286.986, 202.955 291.611 M 197.079 293.583 C 197.127 294.748, 197.364 294.985, 197.683 294.188 C 197.972 293.466, 197.936 292.603, 197.604 292.271 C 197.272 291.939, 197.036 292.529, 197.079 293.583 M 214.158 294 C 214.158 295.375, 214.385 295.938, 214.662 295.250 C 214.940 294.563, 214.940 293.438, 214.662 292.750 C 214.385 292.063, 214.158 292.625, 214.158 294 M 188.500 294 C 188.840 294.550, 189.316 295, 189.559 295 C 189.802 295, 190 294.550, 190 294 C 190 293.450, 189.523 293, 188.941 293 C 188.359 293, 188.160 293.450, 188.500 294 M 224.031 293.500 C 224.031 294.050, 224.467 295.175, 225 296 C 225.533 296.825, 225.969 297.050, 225.969 296.500 C 225.969 295.950, 225.533 294.825, 225 294 C 224.467 293.175, 224.031 292.950, 224.031 293.500 M 333.204 295.045 C 332.532 296.120, 332.389 297, 332.885 297 C 333.782 297, 335.328 293.995, 334.736 293.402 C 334.564 293.231, 333.875 293.970, 333.204 295.045 M 230.174 295.603 C 231.070 296.499, 232.283 297.067, 232.869 296.866 C 233.455 296.665, 232.722 295.931, 231.240 295.237 C 228.749 294.069, 228.668 294.097, 230.174 295.603 M 215.031 297.500 C 215.031 298.050, 215.467 299.175, 216 300 C 216.533 300.825, 216.969 301.050, 216.969 300.500 C 216.969 299.950, 216.533 298.825, 216 298 C 215.467 297.175, 215.031 296.950, 215.031 297.500 M 324.559 299.532 C 323.491 300.339, 323.099 301, 323.686 301 C 324.274 301, 325.315 300.325, 326 299.500 C 327.557 297.624, 327.067 297.634, 324.559 299.532 M 329.823 299.709 C 325.167 300.422, 323.947 303.897, 325.354 312.442 C 325.829 315.326, 333.557 321.572, 341.500 325.490 C 350.201 329.783, 360.020 331.390, 373.811 330.779 C 382.711 330.385, 384.419 330.025, 386.297 328.147 C 387.973 326.471, 388.232 325.592, 387.427 324.315 C 386.029 322.099, 376.010 318.373, 362.168 314.920 C 349.981 311.881, 345.140 309.528, 337.847 303.101 C 335.287 300.845, 333.037 299.067, 332.847 299.150 C 332.656 299.232, 331.295 299.484, 329.823 299.709 M 173.500 304.120 C 165.060 310.741, 158.920 313.731, 148.500 316.292 C 143 317.643, 135.800 319.821, 132.500 321.130 C 127.041 323.296, 126.500 323.780, 126.500 326.492 C 126.500 330.958, 130.419 332.511, 141 332.236 C 159.350 331.760, 172.585 327.547, 182.099 319.153 C 186.521 315.252, 186.705 314.870, 186.875 309.192 C 187.069 302.738, 186.355 301.617, 181.500 300.739 C 179.072 300.301, 177.547 300.945, 173.500 304.120 M 317.750 319.084 C 315.137 321.324, 313 323.720, 313 324.410 C 313 325.647, 325.004 331.282, 334.239 334.379 C 341.403 336.782, 352.951 339.004, 358 338.951 C 362.574 338.903, 369.186 336.319, 369.388 334.500 C 369.450 333.950, 365.017 332.942, 359.539 332.261 C 347.810 330.802, 338.695 326.946, 329.753 319.663 C 326.604 317.098, 323.684 315.003, 323.264 315.006 C 322.844 315.010, 320.363 316.845, 317.750 319.084 M 182.901 320.290 C 175.761 326.825, 167.108 330.683, 155.219 332.632 C 144.199 334.438, 142.962 335.580, 149.577 337.842 C 157.481 340.545, 175.517 337.134, 190.534 330.097 C 195.190 327.915, 199 325.735, 199 325.252 C 199 323.742, 189.678 315.915, 188.027 316.040 C 187.737 316.062, 185.430 317.974, 182.901 320.290 M 308.500 319.740 C 306.850 319.982, 302.474 322.191, 298.776 324.650 C 279.196 337.664, 254.754 341.025, 231.775 333.862 C 226.839 332.323, 223.842 331.947, 220.506 332.447 C 218.006 332.822, 216.181 333.483, 216.449 333.917 C 217.594 335.770, 228.331 338.223, 233.234 337.752 C 241.418 336.965, 251.812 338.477, 254.321 340.818 L 256.500 342.852 259.130 340.577 C 261.516 338.514, 263.092 338.247, 276.130 337.701 C 293.572 336.970, 296.389 336.300, 296.806 332.788 C 297.279 328.810, 300.366 326.717, 306.515 326.207 C 310.603 325.868, 312 325.358, 312 324.205 C 312 323.354, 312.745 321.835, 313.655 320.829 C 315.491 318.799, 315.253 318.749, 308.500 319.740 M 297.500 321.694 C 296.400 321.926, 280.650 324.275, 262.500 326.914 C 231.931 331.359, 229.795 331.798, 233.500 332.866 C 246.003 336.471, 263.206 336.749, 275.500 333.544 C 281.482 331.985, 295.703 325.496, 299.500 322.593 C 301.510 321.056, 301.195 320.915, 297.500 321.694 M 305.626 327.943 C 302.600 328.363, 300.230 329.333, 299.376 330.501 C 295.812 335.374, 298.534 337.490, 315.500 343.038 C 324.640 346.026, 326.575 346.307, 338 346.299 C 347.370 346.293, 351.422 345.883, 354.182 344.661 C 356.207 343.764, 358.085 342.672, 358.356 342.233 C 358.627 341.795, 354.348 340.619, 348.848 339.620 C 338.970 337.827, 328.977 334.603, 317.721 329.579 C 314.543 328.161, 311.618 327.060, 311.221 327.134 C 310.825 327.207, 308.307 327.571, 305.626 327.943 M 193.974 330.585 C 187.441 334.023, 172.725 338.560, 163.250 340.057 C 158.713 340.774, 155 341.712, 155 342.142 C 155 344.032, 172.993 346.955, 181.548 346.455 C 191.095 345.896, 215.006 338.192, 214.995 335.677 C 214.992 335.030, 213.980 333.308, 212.745 331.850 C 210.899 329.672, 209.429 329.115, 204.474 328.716 C 199.477 328.313, 197.685 328.632, 193.974 330.585 M 214.674 338.407 C 213.670 339.190, 207.595 341.491, 201.174 343.520 C 187.469 347.850, 186.500 348.283, 186.500 350.079 C 186.500 353.228, 191.086 354.151, 203 353.401 C 209.325 353.003, 220.350 352.579, 227.500 352.460 C 240.150 352.249, 242.778 351.742, 253.250 347.496 C 255.841 346.445, 255.373 343.291, 252.332 341.298 C 250.273 339.949, 246.453 339.393, 235.582 338.863 C 227.837 338.485, 220.375 337.907, 219 337.579 C 217.514 337.225, 215.759 337.561, 214.674 338.407 M 293.584 337.750 C 293.172 338.163, 285.927 338.732, 277.482 339.015 C 262.992 339.501, 261.985 339.665, 259.565 341.939 C 258.154 343.264, 257 344.637, 257 344.990 C 257 346.076, 264.253 349.746, 269 351.063 C 271.475 351.749, 279.350 352.393, 286.500 352.494 C 293.650 352.594, 304.675 353.003, 311 353.401 C 322.693 354.137, 326.721 353.383, 327.750 350.264 C 328.221 348.836, 326.605 348.106, 315.068 344.533 C 310.430 343.097, 304.431 340.815, 301.736 339.461 C 296.595 336.879, 294.825 336.508, 293.584 337.750" stroke="none" fill="black" fill-rule="evenodd"/>
</svg>